# xmcd CD database file
#
# Track frame offsets:
#	150
#	8635
#	19345
#	31868
#	43237
#	53800
#	65633
#	78020
#	87392
#	100203
#	109722
#	125834
#	137636
#	149193
#	158352
#	170185
#	181109
#	191845
#	203339
#	216128
#	227977
#	238186
#	251226
#	260551
#	271161
#
# Disc length: 3777 seconds
#
# Revision: 4
# Processed by: cddbd v1.5.2PL0 Copyright (c) Steve Scherf et al.
# Submitted via: CDex 2.21
#
DISCID=6b0ebf19
DTITLE=Brenda Lee - Ultimate Collection Vol. 1
DYEAR=2015
DGENRE=Country
TTITLE0=Save All Your Lovin' for Me
TTITLE1=One Teenager to Another
TTITLE2=I'm in the Mood for Love
TTITLE3=Let's Jump the Broomstick
TTITLE4=It Started All over Again
TTITLE5=One Step at a Time
TTITLE6=Cry
TTITLE7=Wee Wee Willies
TTITLE8=I Miss You So
TTITLE9=Here Comes That Feeling Again
TTITLE10=Georgia on My Mind
TTITLE11=Heading Home
TTITLE12=I'll Be Seeing You
TTITLE13=So Deep
TTITLE14=I'm Learnin' About Love
TTITLE15=That's All You Gotta Do
TTITLE16=Anybody but Me
TTITLE17=Hold Me
TTITLE18=Will You Love Me Tomorrow
TTITLE19=I'm Sorry
TTITLE20=It's Never Too Late
TTITLE21=Only You (And You Alone)
TTITLE22=Swanee River Rock
TTITLE23=Sweet Nothin's
TTITLE24=It Started All over Again - Cop
EXTD=YEAR: 2015
EXTT0=
EXTT1=
EXTT2=
EXTT3=
EXTT4=
EXTT5=
EXTT6=
EXTT7=
EXTT8=
EXTT9=
EXTT10=
EXTT11=
EXTT12=
EXTT13=
EXTT14=
EXTT15=
EXTT16=
EXTT17=
EXTT18=
EXTT19=
EXTT20=
EXTT21=
EXTT22=
EXTT23=
EXTT24=
PLAYORDER=
